<?xml version="1.0" standalone="no"?>
<!DOCTYPE svg PUBLIC "-//W3C//DTD SVG 20010904//EN"
 "http://www.w3.org/TR/2001/REC-SVG-20010904/DTD/svg10.dtd">
<svg version="1.0" xmlns="http://www.w3.org/2000/svg" width="900.000000pt" height="900.000000pt" viewBox="0 0 900.000000 900.000000"
    preserveAspectRatio="xMidYMid meet">
    <g>
        <title>background</title>
        <rect fill="#f7df1e" id="canvas_background" height="902" width="902" y="-1" x="-1" />
    </g>
    <g transform="translate(0.000000,900.000000) scale(0.100000,-0.100000)" fill="#000000" stroke="none">
        <path d="M3643 8191 c-88 -24 -118 -39 -185 -94 -53 -43 -54 -43 -88 -29 -83
34 -236 -17 -305 -102 -70 -88 -80 -118 -80 -256 0 -114 2 -130 27 -182 29
-63 93 -137 144 -169 l34 -21 0 -133 0 -134 -32 -3 -33 -3 0 -150 0 -150 586
-3 587 -2 6 22 c9 37 7 234 -4 262 -7 19 -17 26 -35 26 l-26 0 3 131 3 130 53
18 c68 23 113 67 149 145 26 56 28 70 28 181 0 115 -1 123 -32 188 -61 129
-207 252 -373 313 -66 24 -92 28 -215 31 -115 2 -153 -1 -212 -16z m362 -48
c277 -69 461 -296 424 -525 -33 -202 -145 -273 -342 -217 -36 10 -38 12 -23
28 20 22 20 40 1 47 -9 4 -31 -9 -56 -31 -44 -40 -95 -65 -130 -65 -29 0 -106
45 -119 70 -12 23 -45 27 -53 6 -7 -19 69 -91 117 -111 47 -20 107 -14 150 14
25 17 33 18 66 6 20 -7 62 -18 93 -25 l57 -11 0 -130 0 -129 -475 0 -475 0 0
125 0 125 27 -11 c14 -5 32 -8 40 -5 19 8 16 36 -4 43 -187 64 -275 180 -276
363 0 71 4 95 25 140 33 74 71 116 128 145 90 46 175 45 230 -1 25 -21 33 -24
45 -14 10 9 12 17 5 30 -7 13 -4 22 13 37 118 107 333 146 532 96z m-695
-1230 l0 -103 -65 0 -65 0 0 103 0 102 65 0 65 0 0 -102z m940 0 l0 -103 -320
0 -320 0 0 103 0 102 320 0 320 0 0 -102z" />
        <path d="M6345 6720 c-289 -22 -542 -107 -768 -257 -96 -64 -250 -219 -315
-318 -147 -223 -212 -447 -212 -734 0 -632 304 -1063 976 -1382 66 -32 217
-99 335 -149 444 -191 614 -284 714 -391 91 -97 136 -245 115 -376 -16 -99
-50 -165 -124 -239 -122 -122 -304 -184 -544 -184 -386 0 -673 160 -909 507
-31 46 -60 83 -64 83 -4 0 -101 -54 -215 -121 -115 -66 -288 -166 -384 -221
-96 -56 -181 -106 -187 -112 -10 -9 -1 -31 40 -99 302 -505 784 -810 1412
-892 156 -21 466 -24 610 -6 317 39 587 132 806 277 107 71 275 241 345 349
102 157 168 341 195 542 15 112 6 386 -16 508 -40 222 -139 431 -279 590 -224
256 -493 423 -1099 684 -515 221 -635 299 -714 459 -37 75 -38 78 -38 191 0
145 21 204 100 289 95 103 205 146 375 145 194 0 316 -49 445 -178 45 -44 103
-115 129 -158 30 -48 54 -76 62 -73 26 10 754 481 754 488 0 4 -37 63 -82 130
-249 369 -575 573 -1008 632 -139 19 -332 26 -455 16z" />
        <path d="M3227 4903 l-3 -1768 -22 -83 c-42 -157 -109 -251 -216 -301 -82 -39
-153 -52 -280 -52 -234 -1 -379 87 -532 322 -38 59 -78 123 -89 143 l-21 37
-279 -169 c-154 -93 -335 -202 -402 -242 l-121 -74 30 -60 c142 -284 374 -520
646 -660 275 -140 602 -201 949 -176 775 55 1227 477 1313 1225 6 58 10 712
10 1858 l0 1767 -490 0 -489 0 -4 -1767z" />
        <path d="M3960 1020 l0 -430 85 0 85 0 0 108 c0 107 0 109 29 136 16 16 34 26
39 22 5 -3 44 -64 88 -135 l79 -130 104 -1 c86 0 102 2 98 14 -3 8 -61 97
-127 197 l-122 182 111 111 c61 61 111 113 111 116 0 3 -45 4 -101 2 l-100 -3
-104 -107 -104 -107 -1 228 0 227 -85 0 -85 0 0 -430z" />
        <path d="M4640 1380 l0 -70 85 0 85 0 0 70 0 70 -85 0 -85 0 0 -70z" />
        <path d="M6052 1023 l3 -428 88 -3 87 -3 0 201 c0 218 7 254 53 285 33 21 100
22 132 1 43 -28 48 -59 53 -278 l4 -208 84 0 84 0 0 214 c0 117 -5 237 -10
266 -18 97 -77 148 -181 157 -77 7 -140 -11 -184 -54 l-35 -34 0 156 0 155
-90 0 -90 0 2 -427z" />
        <path d="M4988 1308 l-3 -93 -52 -3 -53 -3 0 -54 0 -54 53 -3 52 -3 5 -216 c5
-199 7 -219 25 -239 33 -37 78 -50 175 -50 l90 0 0 68 0 68 -35 -4 c-22 -3
-45 2 -60 12 l-25 16 0 175 0 175 58 0 c32 0 61 2 63 4 2 2 2 27 1 55 l-4 50
-56 3 -57 3 -3 93 -3 92 -84 0 -84 0 -3 -92z" />
        <path d="M5546 1214 c-72 -23 -156 -110 -180 -187 -27 -86 -19 -224 16 -292
53 -101 129 -146 259 -153 102 -5 164 12 222 59 39 32 80 101 92 157 l7 32
-84 0 -83 0 -18 -43 c-21 -52 -60 -77 -120 -77 -84 0 -136 72 -137 191 0 149
96 235 205 183 23 -10 39 -28 49 -55 l16 -39 80 0 80 0 0 30 c0 66 -63 148
-140 183 -60 27 -196 33 -264 11z" />
        <path d="M6938 1212 c-65 -23 -133 -83 -164 -144 -70 -139 -40 -330 67 -421
55 -48 116 -67 210 -67 101 0 174 26 223 80 32 36 66 98 66 121 0 5 -32 9 -71
9 -64 0 -73 -2 -91 -25 -11 -14 -33 -32 -48 -40 -35 -18 -116 -19 -150 -2 -33
17 -70 74 -70 108 l0 29 219 0 c155 0 220 3 223 11 2 7 1 43 -3 80 -9 83 -55
177 -108 218 -75 59 -207 78 -303 43z m165 -121 c29 -11 63 -55 72 -94 l7 -27
-136 0 c-152 0 -156 2 -116 68 32 52 111 76 173 53z" />
        <path d="M7720 1215 c-19 -9 -50 -30 -67 -47 l-33 -32 0 37 0 37 -85 0 -85 0
2 -307 3 -308 88 -3 87 -3 0 201 c0 218 7 254 54 285 14 10 45 17 72 17 95 0
114 -54 114 -328 l0 -174 85 0 85 0 0 215 c0 117 -5 237 -11 264 -13 62 -44
109 -88 135 -46 27 -172 33 -221 11z" />
        <path d="M4640 900 l0 -310 85 0 85 0 0 310 0 310 -85 0 -85 0 0 -310z" />
    </g>
</svg>