<?xml version="1.0" encoding="UTF-8"?>
<svg width="260px" height="250px" viewBox="0 0 260 250" version="1.1" xmlns="http://www.w3.org/2000/svg" xmlns:xlink="http://www.w3.org/1999/xlink">
    <!-- Generator: Sketch 52.2 (67145) - http://www.bohemiancoding.com/sketch -->
    <title>Group 27</title>
    <desc>Created with Sketch.</desc>
    <g id="Page-1" stroke="none" stroke-width="1" fill="none" fill-rule="evenodd">
        <g id="Group-27">
            <path d="M130,0.308642832 C128.065046,0.308642832 126.146944,0.382043272 124.248704,0.524031008 L124.248704,53.6130047 C118.454676,48.4539165 110.821991,45.3079255 102.46588,45.3079255 C84.885787,45.3079255 70.4937037,59.2197154 69.7197222,76.6102048 L80.7901852,76.6102048 C81.5491204,65.3125535 90.9801389,56.3534884 102.46588,56.3534884 C112.066019,56.3534884 120.206065,62.618998 123.073889,71.261599 C123.368194,69.7815573 123.758194,68.3267847 124.248704,66.9032975 C125.208657,64.0942265 126.521898,61.4006711 128.176389,58.908666 C128.313611,58.7089205 128.460463,58.5188013 128.598889,58.3184542 C130.158889,56.0737244 131.977685,54.0082842 134.027593,52.1792896 L135.30412,51.0415828 L135.30412,11.5695939 C169.601852,14.2787921 196.680972,43.0469513 196.680972,78.0180493 C196.680972,95.8236723 189.749444,112.561379 177.149676,125.150156 C166.322963,135.980331 152.414769,142.592989 137.401574,144.239084 L137.401574,155.352632 C155.366852,153.666227 172.047176,145.880967 184.968333,132.9661 C199.649306,118.28902 207.735787,98.7753326 207.735787,78.0180493 C207.735787,36.9486984 175.70162,3.22841606 135.30412,0.492745574 C133.547917,0.377230128 131.781481,0.308642832 130,0.308642832 Z" id="Fill-1" fill="#286AA6"></path>
            <path d="M102.46588,99.8077519 C90.9801389,99.8077519 81.5491204,90.8498901 80.7901852,79.5558487 L69.7197222,79.5558487 C70.4937037,96.9469397 84.885787,110.859331 102.46588,110.859331 C110.821991,110.859331 118.454676,107.71334 124.248704,102.548236 C126.352778,100.677126 128.213704,98.5430985 129.778519,96.1930811 C132.977963,91.3811408 134.945417,85.6847854 135.219259,79.5558487 L135.408241,79.5558487 C135.373333,79.0661113 135.351667,78.5763739 135.351667,78.0806202 C135.351667,77.5848664 135.373333,77.095129 135.408241,76.6102048 C135.577963,74.0285549 136.226759,71.5822747 137.222222,69.3327317 C140.596806,61.7014925 148.219259,56.3534884 157.086343,56.3534884 C168.574491,56.3534884 178.003704,65.3125535 178.763843,76.6102048 L189.834306,76.6102048 C189.063935,59.2197154 174.667037,45.3079255 157.086343,45.3079255 C149.616157,45.3079255 142.736991,47.8324193 137.222222,52.0535462 C136.562593,52.5535115 135.920417,53.064908 135.30412,53.6130047 C133.20125,55.4895291 131.33912,57.6235566 129.778519,59.973574 C126.574259,64.7794979 124.606806,70.4764549 124.332963,76.6102048 L124.143981,76.6102048 C124.181296,77.095129 124.201157,77.5848664 124.201157,78.0806202 C124.201157,78.5763739 124.181296,79.0661113 124.143981,79.5558487 C123.385046,90.8498901 113.954028,99.8077519 102.46588,99.8077519" id="Fill-2" fill="#286AA6"></path>
            <path d="M189.834306,79.5558487 L178.763843,79.5558487 C178.003704,90.8498901 168.574491,99.8077519 157.086343,99.8077519 C147.486204,99.8077519 139.346157,93.5482587 136.478935,84.9050561 C136.179213,86.3808863 135.788611,87.8398704 135.30412,89.2681708 C134.344167,92.0718269 133.037546,94.7647807 131.370417,97.2573875 C131.239213,97.4577346 131.091759,97.6478538 130.955139,97.8421844 C129.387917,100.087516 127.575139,102.158973 125.52463,103.981951 L124.248704,105.119658 L124.248704,144.417772 C108.60838,143.089344 94.0748611,136.37561 82.8503241,125.150156 C70.2523611,112.561379 63.3196296,95.8236723 63.3196296,78.0180493 C63.3196296,43.9217401 89.0716667,15.7383779 122.145833,11.8391299 L122.145833,0.730394539 C82.9622685,4.67717228 52.2660185,37.8192757 52.2660185,78.0180493 C52.2660185,98.7753326 60.3512963,118.28902 75.0334722,132.9661 C88.3482407,146.276247 105.650278,154.166192 124.248704,155.515076 C126.151759,155.653454 128.071667,155.720838 130,155.720838 C131.776667,155.720838 133.5425,155.656462 135.30412,155.54215 L135.30412,102.548236 C141.096944,107.71334 148.730231,110.859331 157.086343,110.859331 C174.667037,110.859331 189.063935,96.9469397 189.834306,79.5558487" id="Fill-3" fill="#00A3DA"></path>
            <path d="M18.6977315,198.38519 L18.9360648,198.388199 C22.2221759,198.388199 24.9262963,199.548768 27.2043056,201.939697 C29.5641667,204.411246 30.7365741,207.231748 30.7925463,210.573273 C30.9062963,214.110934 29.7308796,217.11253 27.1994907,219.756149 C24.9160648,222.194007 22.2269907,223.378642 18.9769907,223.378642 C18.7603241,223.378642 18.54125,223.373227 18.3059259,223.362999 C15.0168056,223.252297 12.3060648,221.976212 10.0178241,219.463751 C7.73078704,216.956705 6.59990741,213.979776 6.65587963,210.618998 C6.71305556,207.175795 7.89990741,204.342659 10.2880556,201.956543 C12.6575463,199.586671 15.4868519,198.38519 18.6977315,198.38519 Z M30.9129167,196.425038 C27.6556944,193.510679 23.7514815,191.95483 19.2761111,191.795395 C14.0315741,191.604674 9.46171296,193.460141 5.68569444,197.296818 C1.91328704,201.067916 0,205.666875 0,210.965544 C0,216.074696 1.76462963,220.524448 5.24453704,224.19086 C8.74851852,227.886151 13.1023148,229.824043 18.1723148,229.952193 C18.4178704,229.96242 18.6628241,229.96603 18.9041667,229.96603 C23.77375,229.96603 28.1359722,228.136434 31.8776852,224.518755 C35.7415741,220.71938 37.6362037,216.132454 37.509213,210.904177 L37.509213,176.216453 L30.9129167,176.216453 L30.9129167,196.425038 Z" id="Fill-4" fill="#286AA6"></path>
            <path d="M66.3583796,213.685572 C66.3583796,216.288881 65.4086574,218.504131 63.4646759,220.447437 C61.5291204,222.327571 59.349213,223.241467 56.8003704,223.241467 C54.2130093,223.241467 52.012037,222.327571 50.0873148,220.457064 C48.1740278,218.544441 47.242963,216.329793 47.242963,213.685572 L47.242963,192.459609 L40.5281019,192.459609 L40.5281019,213.141687 C40.5281019,217.868796 42.0688426,221.873331 45.1166204,225.049404 C48.2263889,228.223672 52.1576852,229.834271 56.8003704,229.834271 C61.4683333,229.834271 65.3815741,228.220664 68.4251389,225.049404 C71.5096296,221.900405 73.0750463,217.895869 73.0750463,213.141687 L73.0750463,192.459609 L66.3583796,192.459609 L66.3583796,213.685572" id="Fill-5" fill="#286AA6"></path>
            <path d="M94.1880093,198.145135 C97.4259722,198.145135 100.208333,199.339396 102.457454,201.696031 C104.815509,204.169987 105.988519,206.989888 106.043889,210.316973 C106.101667,213.918408 104.908796,216.946477 102.396667,219.567234 C100.059074,222.009904 97.3603704,223.195742 94.1422685,223.195742 C93.9328241,223.195742 93.7233796,223.190929 93.5151389,223.180701 C90.1977315,223.009835 87.4815741,221.714497 85.2083796,219.221891 C82.9297685,216.723267 81.8500463,213.829365 81.9072222,210.377138 C81.965,206.934537 83.15125,204.100798 85.5381944,201.713479 C87.9413889,199.312924 90.7700926,198.145135 94.1880093,198.145135 Z M107.577407,197.496564 C104.053565,193.786232 99.6624537,191.805623 94.5280556,191.613699 C89.2137037,191.412149 84.6149537,193.255583 80.8780556,197.055559 C77.1056481,200.826056 75.1923611,205.423811 75.1923611,210.721879 C75.1923611,215.788916 76.9774537,220.239269 80.4946759,223.949601 C83.9793981,227.620826 88.3079167,229.580979 93.3664815,229.772903 C93.6,229.780123 93.8293056,229.783733 94.059213,229.783733 C98.6681944,229.783733 102.729491,228.208631 106.165463,225.095129 L106.165463,228.985954 L112.699769,228.985954 L112.699769,210.904177 L112.697963,210.701423 C112.889352,205.656647 111.165648,201.213514 107.577407,197.496564 Z" id="Fill-6" fill="#286AA6"></path>
            <polygon id="Fill-7" fill="#286AA6" points="116.741204 228.985954 123.396481 228.985954 123.396481 175.975194 116.741204 175.975194"></polygon>
            <path d="M158.534398,210.377138 C158.59037,213.786648 157.491991,216.679347 155.173056,219.221891 C152.898056,221.717505 150.181898,223.013444 146.869306,223.180701 C143.435139,223.349763 140.526389,222.163925 137.984769,219.567234 C135.457593,216.929631 134.284583,213.90818 134.398333,210.316973 C134.453102,206.989888 135.626713,204.169987 137.985972,201.696031 C140.233889,199.339396 143.015648,198.145135 146.254213,198.145135 C149.648056,198.145135 152.453889,199.32977 154.843241,201.774245 C157.271713,204.202476 158.478426,207.015157 158.534398,210.377138 Z M145.915972,191.613699 C141.403287,191.775541 137.50088,193.322967 134.277963,196.225894 L134.277963,175.975194 L127.68287,175.975194 L127.68287,210.637649 C127.554676,215.888789 129.449306,220.477519 133.314398,224.277496 C137.031435,227.931876 141.397269,229.786741 146.287917,229.786741 C146.529861,229.786741 146.773009,229.780123 147.019769,229.7717 C152.115648,229.577369 156.466435,227.619021 159.947546,223.949601 C163.465972,220.239269 165.251065,215.788916 165.251065,210.721879 C165.251065,205.464121 163.317315,200.866967 159.51,197.060373 C155.767685,193.255583 151.18037,191.418767 145.915972,191.613699 Z" id="Fill-8" fill="#286AA6"></path>
            <path d="M185.03213,198.204096 L185.274676,198.205901 C188.517454,198.205901 191.202917,199.368275 193.482731,201.757399 C195.825741,204.213907 197.018611,207.038621 197.130556,210.377138 C197.188333,213.938864 195.994861,216.946477 193.476713,219.575055 C191.195093,222.011709 188.504213,223.197547 185.254213,223.197547 C185.037546,223.197547 184.81787,223.190929 184.582546,223.180701 C181.295231,223.069397 178.585093,221.795719 176.294444,219.283258 C174.016435,216.78283 172.936713,213.888326 172.993889,210.438505 C173.051065,206.994701 174.239722,204.159759 176.626065,201.774245 C179.029259,199.371885 181.77912,198.204096 185.03213,198.204096 Z M185.553333,191.613699 C180.310602,191.42358 175.738333,193.279047 171.964722,197.11452 C168.192315,200.885618 166.278426,205.483975 166.278426,210.782645 C166.278426,215.891797 168.041852,220.342751 171.521759,224.008562 C175.026944,227.705658 179.380741,229.645355 184.449537,229.7717 C184.696296,229.780123 184.939444,229.786741 185.181389,229.786741 C190.093102,229.786741 194.419815,227.949925 198.039954,224.331644 C201.852685,220.520236 203.786435,215.942936 203.786435,210.721879 C203.786435,205.656647 202.001944,201.206294 198.487731,197.503182 C195.024676,193.78924 190.674491,191.809233 185.553333,191.613699 Z" id="Fill-9" fill="#286AA6"></path>
            <path d="M224.234954,198.204096 L224.4775,198.205901 C227.720278,198.205901 230.405741,199.368275 232.684352,201.757399 C235.028565,204.213907 236.221435,207.038621 236.33338,210.377138 C236.389352,213.938864 235.19588,216.946477 232.678935,219.575055 C230.396111,222.011709 227.707037,223.197547 224.456435,223.197547 L224.45463,223.197547 C224.238565,223.197547 224.020694,223.190929 223.78537,223.180701 C220.49625,223.069397 217.785509,221.795719 215.497269,219.283258 C213.218657,216.78283 212.139537,213.888326 212.194306,210.438505 C212.252083,206.994701 213.440741,204.159759 215.826481,201.774245 C218.230278,199.371885 220.980139,198.204096 224.234954,198.204096 Z M224.755556,191.613699 C219.519444,191.42358 214.939352,193.279047 211.165139,197.11452 C207.393333,200.885618 205.480046,205.483975 205.480046,210.782645 C205.480046,215.891797 207.244676,220.342751 210.722778,224.008562 C214.227963,227.705658 218.581759,229.645355 223.651759,229.7717 C223.897315,229.780123 224.140463,229.786741 224.381806,229.786741 C229.295324,229.786741 233.622639,227.949925 237.242778,224.331644 C241.054306,220.520236 242.986852,215.942936 242.986852,210.721879 C242.986852,205.656647 241.202963,201.206294 237.690556,197.503182 C234.2275,193.78924 229.874907,191.809233 224.755556,191.613699 Z" id="Fill-10" fill="#286AA6"></path>
            <polyline id="Fill-11" fill="#286AA6" points="253.828009 193.436075 253.828009 176.430638 247.604861 176.430638 247.604861 193.436075 241.432269 193.436075 241.432269 199.685942 247.604861 199.685942 247.604861 230.135092 253.828009 230.135092 253.828009 199.685942 260 199.685942 260 193.436075 253.828009 193.436075"></polyline>
            <path d="M5.135,243.721995 L8.49814815,243.721995 C11.3677778,243.721995 11.3509259,239.511697 8.49814815,239.511697 L5.135,239.511697 L5.135,243.721995 Z M8.49814815,245.776605 L5.135,245.776605 L5.135,249.275761 L2.89189815,249.275761 L2.89189815,237.390304 C4.76125,237.390304 6.6287963,237.372857 8.49814815,237.372857 C14.3072222,237.372857 14.3240741,245.776605 8.49814815,245.776605 Z" id="Fill-12" fill="#00A3DA"></path>
            <path d="M42.7838426,239.885318 L40.5750463,244.945135 L44.9932407,244.945135 L42.7838426,239.885318 Z M45.8924074,247.034039 L39.6758796,247.034039 L38.6569444,249.275761 L36.2278704,249.275761 L41.5608796,237.390304 L44.0080093,237.390304 L49.3416204,249.275761 L46.8944907,249.275761 L45.8924074,247.034039 Z" id="Fill-13" fill="#00A3DA"></path>
            <path d="M75.6774537,239.478005 L75.6774537,243.281592 L79.0917593,243.281592 C80.5199537,243.281592 81.1314352,242.330395 81.1314352,241.3804 C81.1314352,240.427398 80.5031019,239.478005 79.0917593,239.478005 L75.6774537,239.478005 Z M83.967963,249.275761 L81.3005556,249.275761 L77.8356944,245.301909 L75.6774537,245.301909 L75.6774537,249.275761 L73.4367593,249.275761 L73.4367593,237.372857 C75.3205556,237.372857 77.2073611,237.390304 79.0917593,237.390304 C81.895787,237.406549 83.3727315,239.273447 83.3727315,241.329862 C83.3727315,242.95851 82.6258333,244.605808 80.3658796,245.06426 L83.967963,249.122342 L83.967963,249.275761 Z" id="Fill-14" fill="#00A3DA"></path>
            <path d="M111.562269,239.427467 L107.790463,239.427467 L107.790463,237.390304 C111.221019,237.390304 114.126157,237.390304 117.574167,237.390304 L117.574167,239.427467 L113.803565,239.427467 L113.803565,249.275761 L111.562269,249.275761 L111.562269,239.427467" id="Fill-15" fill="#00A3DA"></path>
            <polyline id="Fill-16" fill="#00A3DA" points="149.823796 237.372857 152.066296 237.372857 152.066296 249.275761 150.674213 249.275761 150.674213 249.292607 144.422176 241.260673 144.422176 249.275761 142.179074 249.275761 142.179074 237.390304 143.99787 237.390304 149.823796 244.759829 149.823796 237.372857"></polyline>
            <path d="M186.063102,249.275761 L177.162917,249.275761 C177.162917,245.318755 177.162917,241.346708 177.162917,237.390304 L186.063102,237.390304 L186.063102,239.562837 L179.387963,239.562837 L179.387963,242.296101 L185.827176,242.296101 L185.827176,244.385005 L179.387963,244.385005 L179.387963,247.067731 L186.063102,247.067731 L186.063102,249.275761" id="Fill-17" fill="#00A3DA"></path>
            <path d="M213.132593,239.478005 L213.132593,243.281592 L216.546898,243.281592 C217.973287,243.281592 218.58537,242.330395 218.58537,241.3804 C218.58537,240.427398 217.956435,239.478005 216.546898,239.478005 L213.132593,239.478005 Z M221.420694,249.275761 L218.754491,249.275761 L215.28963,245.301909 L213.132593,245.301909 L213.132593,249.275761 L210.889491,249.275761 L210.889491,237.372857 C212.774491,237.372857 214.660694,237.390304 216.546898,237.390304 C219.34912,237.406549 220.826065,239.273447 220.826065,241.329862 C220.826065,242.95851 220.079167,244.605808 217.819213,245.06426 L221.420694,249.122342 L221.420694,249.275761 Z" id="Fill-18" fill="#00A3DA"></path>
            <path d="M253.278519,240.258336 C252.871065,239.579081 251.750417,238.93412 250.458843,238.93412 C248.794722,238.93412 247.997269,239.630221 247.997269,240.514034 C247.997269,241.549462 249.219028,241.838251 250.647222,242.007312 C253.12625,242.312947 255.436759,242.95851 255.436759,245.793451 C255.436759,248.443087 253.092546,249.581395 250.442593,249.581395 C248.013519,249.581395 246.144769,248.834756 245.262454,246.660419 L247.129398,245.691774 C247.657222,246.999745 249.032454,247.577924 250.476296,247.577924 C251.885833,247.577924 253.211111,247.084577 253.211111,245.793451 C253.211111,244.673192 252.039306,244.215342 250.458843,244.04628 C248.03037,243.756288 245.78787,243.111929 245.78787,240.444846 C245.78787,238.001574 248.200093,236.998033 250.391435,236.981187 C252.24213,236.981187 254.162639,237.508226 255.063611,239.343237 L253.278519,240.258336" id="Fill-20" fill="#00A3DA"></path>
        </g>
    </g>
</svg>