<svg version="1.1" xmlns="http://www.w3.org/2000/svg" xmlns:xlink="http://www.w3.org/1999/xlink" width="1084" height="1084" viewBox="0 0 1084 1084"><g id="logo"><path id="Эллипс-2" d="M542.000,-0.000 C841.338,-0.000 1084.000,242.662 1084.000,542.000 C1084.000,841.338 841.338,1084.000 542.000,1084.000 C242.662,1084.000 -0.000,841.338 -0.000,542.000 C-0.000,242.662 242.662,-0.000 542.000,-0.000 z" fill="#4EB980" /><path id="-" d="M877.418,578.142 C877.418,578.142 707.832,656.059 707.832,656.059 C697.415,661.059 690.749,661.893 684.915,661.893 C671.582,661.893 661.998,652.726 661.998,646.059 C661.998,638.142 664.082,628.976 681.582,621.475 C681.582,621.475 834.500,554.391 834.500,554.391 C834.500,554.391 681.582,487.307 681.582,487.307 C664.082,479.807 661.998,470.640 661.998,462.724 C661.998,456.057 671.582,446.890 684.915,446.890 C690.749,446.890 697.415,447.723 707.832,452.723 C707.832,452.723 877.418,530.641 877.418,530.641 C886.168,534.808 892.834,543.975 892.834,554.391 C892.834,564.808 886.168,573.975 877.418,578.142 zM422.009,646.059 C422.009,652.726 412.426,661.893 399.092,661.893 C393.259,661.893 386.592,661.059 376.175,656.059 C376.175,656.059 206.590,578.142 206.590,578.142 C197.840,573.975 191.173,564.808 191.173,554.391 C191.173,543.975 197.840,534.808 206.590,530.641 C206.590,530.641 376.175,452.723 376.175,452.723 C386.592,447.723 393.259,446.890 399.092,446.890 C412.426,446.890 422.009,456.057 422.009,462.724 C422.009,470.640 419.926,479.807 402.425,487.307 C402.425,487.307 249.507,554.391 249.507,554.391 C249.507,554.391 402.425,621.475 402.425,621.475 C419.926,628.976 422.009,638.142 422.009,646.059 z" fill="#FFFFFF" /><path id="/" d="M471.740,686.739 C471.740,695.906 481.323,701.740 491.740,701.740 C502.574,701.740 511.324,693.406 515.074,683.406 C515.074,683.406 610.492,417.153 610.492,417.153 C612.158,412.986 612.992,407.569 612.992,402.569 C612.992,393.403 603.408,387.569 592.991,387.569 C582.158,387.569 573.408,395.903 569.658,405.903 C569.658,405.903 474.240,672.156 474.240,672.156 C472.573,676.323 471.740,681.739 471.740,686.739 z" fill="#FFFFFF" /></g></svg>