<svg width="260" height="250" xmlns="http://www.w3.org/2000/svg"><g fill="none" fill-rule="evenodd"><path d="M130 .309c-1.935 0-3.853.073-5.751.215v53.089c-5.794-5.16-13.427-8.305-21.783-8.305-17.58 0-31.972 13.912-32.746 31.302h11.07c.76-11.297 10.19-20.257 21.676-20.257 9.6 0 17.74 6.266 20.608 14.909.294-1.48.684-2.935 1.175-4.359a34.797 34.797 0 0 1 3.927-7.994c.138-.2.284-.39.423-.59a34.97 34.97 0 0 1 5.429-6.14l1.276-1.137V11.57c34.298 2.709 61.377 31.477 61.377 66.448 0 17.806-6.932 34.543-19.531 47.132-10.827 10.83-24.735 17.443-39.748 19.09v11.113c17.965-1.687 34.645-9.472 47.566-22.387 14.681-14.677 22.768-34.19 22.768-54.948 0-41.07-32.034-74.79-72.432-77.525A80.738 80.738 0 0 0 130 .309z" fill="#286AA6"/><path d="M102.466 99.808c-11.486 0-20.917-8.958-21.676-20.252H69.72c.774 17.39 15.166 31.303 32.746 31.303 8.356 0 15.989-3.146 21.783-8.31a32.937 32.937 0 0 0 5.53-6.356 32.608 32.608 0 0 0 5.44-16.637h.19c-.036-.49-.057-.98-.057-1.475 0-.496.021-.986.056-1.47.17-2.582.819-5.029 1.814-7.278 3.375-7.632 10.997-12.98 19.864-12.98 11.488 0 20.918 8.96 21.678 20.257h11.07c-.77-17.39-15.167-31.302-32.748-31.302-7.47 0-14.349 2.524-19.864 6.746-.66.5-1.302 1.01-1.918 1.559a33.005 33.005 0 0 0-5.525 6.36 32.532 32.532 0 0 0-5.446 16.637h-.189a19.149 19.149 0 0 1 0 2.946c-.759 11.294-10.19 20.252-21.678 20.252" fill="#286AA6"/><path d="M189.834 79.556h-11.07c-.76 11.294-10.19 20.252-21.678 20.252-9.6 0-17.74-6.26-20.607-14.903a35.71 35.71 0 0 1-1.175 4.363 34.392 34.392 0 0 1-3.934 7.99c-.13.2-.278.39-.415.584a35.014 35.014 0 0 1-5.43 6.14l-1.276 1.138v39.298c-15.64-1.329-30.174-8.042-41.399-19.268-12.598-12.589-19.53-29.326-19.53-47.132 0-34.096 25.752-62.28 58.826-66.179V.73c-39.184 3.947-69.88 37.09-69.88 77.288 0 20.757 8.085 40.271 22.767 54.948 13.315 13.31 30.617 21.2 49.216 22.55a79.34 79.34 0 0 0 11.055.026v-52.994c5.793 5.165 13.426 8.311 21.782 8.311 17.581 0 31.978-13.912 32.748-31.303" fill="#00A3DA"/><path d="M18.698 198.385l.238.003c3.286 0 5.99 1.16 8.268 3.552 2.36 2.471 3.533 5.292 3.589 8.633.113 3.538-1.062 6.54-3.594 9.183-2.283 2.438-4.972 3.623-8.222 3.623-.217 0-.436-.006-.671-.016-3.29-.11-6-1.387-8.288-3.9-2.287-2.506-3.418-5.483-3.362-8.844.057-3.443 1.244-6.276 3.632-8.662 2.37-2.37 5.199-3.572 8.41-3.572zm12.215-1.96c-3.257-2.914-7.162-4.47-11.637-4.63-5.244-.19-9.814 1.665-13.59 5.502C1.913 201.067 0 205.667 0 210.966c0 5.109 1.765 9.558 5.245 13.225 3.504 3.695 7.857 5.633 12.927 5.761.246.01.49.014.732.014 4.87 0 9.232-1.83 12.974-5.447 3.864-3.8 5.758-8.387 5.631-13.615v-34.688h-6.596v20.209zm35.445 17.26c0 2.604-.95 4.82-2.893 6.762-1.936 1.88-4.116 2.794-6.665 2.794-2.587 0-4.788-.913-6.713-2.784-1.913-1.913-2.844-4.127-2.844-6.771V192.46h-6.715v20.682c0 4.727 1.54 8.731 4.589 11.907 3.11 3.175 7.04 4.785 11.683 4.785 4.668 0 8.582-1.613 11.625-4.785 3.085-3.149 4.65-7.153 4.65-11.907V192.46h-6.717v21.226m27.83-15.54c3.238 0 6.02 1.193 8.27 3.55 2.358 2.474 3.53 5.294 3.586 8.621.058 3.601-1.135 6.63-3.647 9.25-2.338 2.443-5.037 3.629-8.255 3.629-.21 0-.419-.005-.627-.015-3.317-.171-6.033-1.467-8.307-3.96-2.278-2.498-3.358-5.392-3.3-8.844.057-3.442 1.243-6.276 3.63-8.664 2.403-2.4 5.232-3.568 8.65-3.568zm13.39-.65c-3.524-3.71-7.916-5.69-13.05-5.882-5.314-.202-9.913 1.642-13.65 5.442-3.772 3.77-5.686 8.368-5.686 13.666 0 5.067 1.785 9.517 5.303 13.228 3.484 3.67 7.813 5.631 12.871 5.823.234.007.463.01.693.01 4.61 0 8.67-1.574 12.106-4.688v3.891h6.535v-18.082l-.002-.203c.191-5.044-1.532-9.487-5.12-13.204z" fill="#286AA6"/><path fill="#286AA6" d="M116.741204 228.985954L123.396481 228.985954 123.396481 175.975194 116.741204 175.975194z"/><path d="M158.534 210.377c.056 3.41-1.042 6.302-3.36 8.845-2.276 2.496-4.992 3.791-8.305 3.959-3.434.169-6.343-1.017-8.884-3.614-2.527-2.637-3.7-5.659-3.587-9.25.055-3.327 1.229-6.147 3.588-8.621 2.248-2.357 5.03-3.55 8.268-3.55 3.394 0 6.2 1.184 8.59 3.628 2.428 2.428 3.634 5.241 3.69 8.603zm-12.618-18.763c-4.513.162-8.415 1.709-11.638 4.612v-20.25h-6.595v34.662c-.128 5.25 1.766 9.84 5.631 13.64 3.717 3.654 8.083 5.509 12.974 5.509.242 0 .485-.007.732-.015 5.096-.195 9.446-2.153 12.928-5.822 3.518-3.71 5.303-8.161 5.303-13.228 0-5.258-1.934-9.855-5.741-13.662-3.742-3.804-8.33-5.641-13.594-5.446zm39.116 6.59l.243.002c3.242 0 5.928 1.162 8.208 3.551 2.343 2.457 3.536 5.282 3.648 8.62.057 3.562-1.136 6.57-3.654 9.198-2.282 2.437-4.973 3.623-8.223 3.623-.216 0-.436-.007-.671-.017-3.288-.112-5.998-1.385-8.289-3.898-2.278-2.5-3.357-5.395-3.3-8.844.057-3.444 1.246-6.28 3.632-8.665 2.403-2.402 5.153-3.57 8.406-3.57zm.521-6.59c-5.242-.19-9.815 1.665-13.588 5.5-3.773 3.772-5.687 8.37-5.687 13.669 0 5.109 1.764 9.56 5.244 13.226 3.505 3.697 7.859 5.636 12.928 5.763.246.008.49.015.731.015 4.912 0 9.239-1.837 12.859-5.455 3.813-3.812 5.746-8.39 5.746-13.61 0-5.065-1.784-9.516-5.298-13.219-3.463-3.714-7.814-5.694-12.935-5.89zm38.682 6.59l.242.002c3.243 0 5.929 1.162 8.207 3.551 2.345 2.457 3.537 5.282 3.65 8.62.055 3.562-1.138 6.57-3.655 9.198-2.283 2.437-4.972 3.623-8.223 3.623h-.001c-.216 0-.434-.007-.67-.017-3.289-.112-6-1.385-8.288-3.898-2.278-2.5-3.357-5.395-3.303-8.844.058-3.444 1.247-6.28 3.632-8.665 2.404-2.402 5.154-3.57 8.409-3.57zm.52-6.59c-5.236-.19-9.816 1.665-13.59 5.5-3.772 3.772-5.685 8.37-5.685 13.669 0 5.109 1.765 9.56 5.243 13.226 3.505 3.697 7.859 5.636 12.929 5.763.245.008.488.015.73.015 4.913 0 9.24-1.837 12.86-5.455 3.812-3.812 5.745-8.39 5.745-13.61 0-5.065-1.784-9.516-5.296-13.219-3.464-3.714-7.816-5.694-12.935-5.89z" fill="#286AA6"/><path fill="#286AA6" d="M253.828009 193.436075L253.828009 176.430638 247.604861 176.430638 247.604861 193.436075 241.432269 193.436075 241.432269 199.685942 247.604861 199.685942 247.604861 230.135092 253.828009 230.135092 253.828009 199.685942 260 199.685942 260 193.436075 253.828009 193.436075"/><path d="M5.135 243.722h3.363c2.87 0 2.853-4.21 0-4.21H5.135v4.21zm3.363 2.055H5.135v3.499H2.892V237.39c1.87 0 3.737-.017 5.606-.017 5.81 0 5.826 8.404 0 8.404zm34.286-5.892l-2.209 5.06h4.418l-2.21-5.06zm3.108 7.149h-6.216l-1.02 2.242h-2.428l5.333-11.886h2.447l5.334 11.886h-2.448l-1.002-2.242zm29.785-7.556v3.804h3.415c1.428 0 2.04-.952 2.04-1.902 0-.953-.629-1.902-2.04-1.902h-3.415zm8.291 9.798h-2.667l-3.465-3.974h-2.159v3.974h-2.24v-11.903c1.884 0 3.77.017 5.655.017 2.804.017 4.28 1.883 4.28 3.94 0 1.629-.746 3.276-3.006 3.734l3.602 4.058v.154zm27.594-9.849h-3.772v-2.037h9.784v2.037h-3.77v9.849h-2.242v-9.849" fill="#00A3DA"/><path fill="#00A3DA" d="M149.823796 237.372857L152.066296 237.372857 152.066296 249.275761 150.674213 249.275761 150.674213 249.292607 144.422176 241.260673 144.422176 249.275761 142.179074 249.275761 142.179074 237.390304 143.99787 237.390304 149.823796 244.759829 149.823796 237.372857"/><path d="M186.063 249.276h-8.9V237.39h8.9v2.173h-6.675v2.733h6.44v2.089h-6.44v2.683h6.675v2.208m27.07-9.798v3.804h3.414c1.426 0 2.038-.952 2.038-1.902 0-.953-.629-1.902-2.038-1.902h-3.414zm8.288 9.798h-2.667l-3.464-3.974h-2.157v3.974h-2.244v-11.903c1.885 0 3.772.017 5.658.017 2.802.017 4.28 1.883 4.28 3.94 0 1.629-.748 3.276-3.008 3.734l3.602 4.058v.154zm31.858-9.018c-.408-.679-1.529-1.324-2.82-1.324-1.664 0-2.462.696-2.462 1.58 0 1.035 1.222 1.324 2.65 1.493 2.48.306 4.79.952 4.79 3.786 0 2.65-2.344 3.788-4.994 3.788-2.43 0-4.298-.746-5.18-2.92l1.866-.97c.528 1.309 1.903 1.887 3.347 1.887 1.41 0 2.735-.493 2.735-1.785 0-1.12-1.172-1.578-2.752-1.747-2.429-.29-4.671-.934-4.671-3.601 0-2.443 2.412-3.447 4.603-3.464 1.851 0 3.772.527 4.673 2.362l-1.785.915" fill="#00A3DA"/></g></svg>