<svg width="260" height="250" viewBox="0 0 260 250" fill="none" xmlns="http://www.w3.org/2000/svg">
<g id="vertical">
<path id="Fill 1" fill-rule="evenodd" clip-rule="evenodd" d="M135.304 0.492742C133.548 0.377227 131.781 0.30864 130 0.30864C128.065 0.30864 126.147 0.38204 124.249 0.524028V53.613C118.455 48.4539 110.822 45.3079 102.466 45.3079C84.8858 45.3079 70.4937 59.2197 69.7197 76.6102H80.7902C81.5491 65.3125 90.9801 56.3535 102.466 56.3535C112.066 56.3535 120.206 62.619 123.074 71.2616C123.368 69.7816 123.758 68.3268 124.249 66.9033C125.209 64.0942 126.522 61.4007 128.176 58.9087C128.314 58.7089 128.46 58.5188 128.599 58.3185C130.159 56.0737 131.978 54.0083 134.028 52.1793L135.304 51.0416V11.5696C169.602 14.2788 196.681 43.0469 196.681 78.018C196.681 95.8237 189.749 112.561 177.15 125.15C166.323 135.98 152.415 142.593 137.402 144.239V155.353C155.367 153.666 172.047 145.881 184.968 132.966C199.649 118.289 207.736 98.7753 207.736 78.018C207.736 36.9487 175.702 3.22841 135.304 0.492742Z" fill="white"/>
<path id="Fill 2" fill-rule="evenodd" clip-rule="evenodd" d="M102.466 99.8078C90.9801 99.8078 81.5491 90.8499 80.7902 79.5558H69.7197C70.4937 96.9469 84.8858 110.859 102.466 110.859C110.822 110.859 118.455 107.713 124.249 102.548C126.353 100.677 128.214 98.5431 129.779 96.1931C132.978 91.3811 134.945 85.6848 135.219 79.5558H135.408C135.373 79.0661 135.352 78.5764 135.352 78.0806C135.352 77.5849 135.373 77.0951 135.408 76.6102C135.578 74.0286 136.227 71.5823 137.222 69.3327C140.597 61.7015 148.219 56.3535 157.086 56.3535C168.574 56.3535 178.004 65.3125 178.764 76.6102H189.834C189.064 59.2197 174.667 45.3079 157.086 45.3079C149.616 45.3079 142.737 47.8324 137.222 52.0535C136.563 52.5535 135.92 53.0649 135.304 53.613C133.201 55.4895 131.339 57.6236 129.779 59.9736C126.574 64.7795 124.607 70.4765 124.333 76.6102H124.144C124.181 77.0951 124.201 77.5849 124.201 78.0806C124.201 78.5764 124.181 79.0661 124.144 79.5558C123.385 90.8499 113.954 99.8078 102.466 99.8078Z" fill="white"/>
<path id="Fill 3" fill-rule="evenodd" clip-rule="evenodd" d="M189.834 79.5558H178.764C178.004 90.8499 168.574 99.8077 157.086 99.8077C147.486 99.8077 139.346 93.5483 136.479 84.9051C136.179 86.3809 135.789 87.8399 135.304 89.2682C134.344 92.0718 133.038 94.7648 131.37 97.2574C131.239 97.4577 131.092 97.6479 130.955 97.8422C129.388 100.088 127.575 102.159 125.525 103.982L124.249 105.12V144.418C108.608 143.089 94.0749 136.376 82.8503 125.15C70.2524 112.561 63.3196 95.8237 63.3196 78.018C63.3196 43.9217 89.0717 15.7384 122.146 11.8391V0.730392C82.9623 4.67717 52.266 37.8193 52.266 78.018C52.266 98.7753 60.3513 118.289 75.0335 132.966C88.3482 146.276 105.65 154.166 124.249 155.515C126.152 155.653 128.072 155.721 130 155.721C131.777 155.721 133.543 155.656 135.304 155.542V102.548C141.097 107.713 148.73 110.859 157.086 110.859C174.667 110.859 189.064 96.9469 189.834 79.5558Z" fill="white"/>
<path id="Fill 4" fill-rule="evenodd" clip-rule="evenodd" d="M18.6977 198.385L18.9361 198.388C22.2222 198.388 24.9263 199.549 27.2043 201.94C29.5642 204.411 30.7366 207.232 30.7925 210.573C30.9063 214.111 29.7309 217.113 27.1995 219.756C24.9161 222.194 22.227 223.379 18.977 223.379C18.7603 223.379 18.5413 223.373 18.3059 223.363C15.0168 223.252 12.3061 221.976 10.0178 219.464C7.73079 216.957 6.59991 213.98 6.65588 210.619C6.71306 207.176 7.89991 204.343 10.2881 201.957C12.6575 199.587 15.4869 198.385 18.6977 198.385ZM30.9129 196.425C27.6557 193.511 23.7515 191.955 19.2761 191.795C14.0316 191.605 9.46171 193.46 5.68569 197.297C1.91329 201.068 0 205.667 0 210.966C0 216.075 1.76463 220.524 5.24454 224.191C8.74852 227.886 13.1023 229.824 18.1723 229.952C18.4179 229.962 18.6628 229.966 18.9042 229.966C23.7738 229.966 28.136 228.136 31.8777 224.519C35.7416 220.719 37.6362 216.132 37.5092 210.904V176.216H30.9129V196.425Z" fill="white"/>
<path id="Fill 5" fill-rule="evenodd" clip-rule="evenodd" d="M66.3584 213.686C66.3584 216.289 65.4087 218.504 63.4647 220.447C61.5291 222.328 59.3492 223.241 56.8004 223.241C54.213 223.241 52.012 222.328 50.0873 220.457C48.174 218.544 47.243 216.33 47.243 213.686V192.46H40.5281V213.142C40.5281 217.869 42.0688 221.873 45.1166 225.049C48.2264 228.224 52.1577 229.834 56.8004 229.834C61.4683 229.834 65.3816 228.221 68.4251 225.049C71.5096 221.9 73.0751 217.896 73.0751 213.142V192.46H66.3584V213.686Z" fill="white"/>
<path id="Fill 6" fill-rule="evenodd" clip-rule="evenodd" d="M94.188 198.145C97.426 198.145 100.208 199.339 102.457 201.696C104.816 204.17 105.989 206.99 106.044 210.317C106.102 213.918 104.909 216.946 102.397 219.567C100.059 222.01 97.3604 223.196 94.1423 223.196C93.9328 223.196 93.7234 223.191 93.5151 223.181C90.1977 223.01 87.4816 221.714 85.2084 219.222C82.9298 216.723 81.85 213.829 81.9072 210.377C81.965 206.935 83.1512 204.101 85.5382 201.713C87.9414 199.313 90.7701 198.145 94.188 198.145ZM107.577 197.497C104.054 193.786 99.6624 191.806 94.528 191.614C89.2137 191.412 84.6149 193.256 80.878 197.056C77.1056 200.826 75.1924 205.424 75.1924 210.722C75.1924 215.789 76.9774 220.239 80.4947 223.95C83.9794 227.621 88.3079 229.581 93.3665 229.773C93.6 229.78 93.8293 229.784 94.0592 229.784C98.6682 229.784 102.729 228.209 106.165 225.095V228.986H112.7V210.904L112.698 210.701C112.889 205.657 111.166 201.214 107.577 197.497Z" fill="white"/>
<path id="Fill 7" fill-rule="evenodd" clip-rule="evenodd" d="M116.741 228.986H123.396V175.975H116.741V228.986Z" fill="white"/>
<path id="Fill 8" fill-rule="evenodd" clip-rule="evenodd" d="M158.534 210.377C158.59 213.787 157.492 216.679 155.173 219.222C152.898 221.717 150.182 223.013 146.869 223.181C143.435 223.35 140.526 222.164 137.985 219.567C135.458 216.93 134.285 213.908 134.398 210.317C134.453 206.99 135.627 204.17 137.986 201.696C140.234 199.339 143.016 198.145 146.254 198.145C149.648 198.145 152.454 199.33 154.843 201.774C157.272 204.202 158.478 207.015 158.534 210.377ZM145.916 191.614C141.403 191.776 137.501 193.323 134.278 196.226V175.975H127.683V210.638C127.555 215.889 129.449 220.478 133.314 224.277C137.031 227.932 141.397 229.787 146.288 229.787C146.53 229.787 146.773 229.78 147.02 229.772C152.116 229.577 156.466 227.619 159.948 223.95C163.466 220.239 165.251 215.789 165.251 210.722C165.251 205.464 163.317 200.867 159.51 197.06C155.768 193.256 151.18 191.419 145.916 191.614Z" fill="white"/>
<path id="Fill 9" fill-rule="evenodd" clip-rule="evenodd" d="M185.032 198.204L185.275 198.206C188.517 198.206 191.203 199.368 193.483 201.757C195.826 204.214 197.019 207.039 197.131 210.377C197.188 213.939 195.995 216.946 193.477 219.575C191.195 222.012 188.504 223.198 185.254 223.198C185.038 223.198 184.818 223.191 184.583 223.181C181.295 223.069 178.585 221.796 176.294 219.283C174.016 216.783 172.937 213.888 172.994 210.438C173.051 206.995 174.24 204.16 176.626 201.774C179.029 199.372 181.779 198.204 185.032 198.204ZM185.553 191.614C180.311 191.424 175.738 193.279 171.965 197.115C168.192 200.886 166.278 205.484 166.278 210.783C166.278 215.892 168.042 220.343 171.522 224.009C175.027 227.706 179.381 229.645 184.45 229.772C184.696 229.78 184.939 229.787 185.181 229.787C190.093 229.787 194.42 227.95 198.04 224.332C201.853 220.52 203.786 215.943 203.786 210.722C203.786 205.657 202.002 201.206 198.488 197.503C195.025 193.789 190.675 191.809 185.553 191.614Z" fill="white"/>
<path id="Fill 10" fill-rule="evenodd" clip-rule="evenodd" d="M224.235 198.204L224.477 198.206C227.72 198.206 230.406 199.368 232.684 201.757C235.029 204.214 236.221 207.039 236.333 210.377C236.389 213.939 235.196 216.946 232.679 219.575C230.396 222.012 227.707 223.198 224.456 223.198H224.455C224.239 223.198 224.021 223.191 223.785 223.181C220.496 223.069 217.786 221.796 215.497 219.283C213.219 216.783 212.14 213.888 212.194 210.438C212.252 206.995 213.441 204.16 215.826 201.774C218.23 199.372 220.98 198.204 224.235 198.204ZM224.756 191.614C219.519 191.424 214.939 193.279 211.165 197.115C207.393 200.886 205.48 205.484 205.48 210.783C205.48 215.892 207.245 220.343 210.723 224.009C214.228 227.706 218.582 229.645 223.652 229.772C223.897 229.78 224.14 229.787 224.382 229.787C229.295 229.787 233.623 227.95 237.243 224.332C241.054 220.52 242.987 215.943 242.987 210.722C242.987 205.657 241.203 201.206 237.691 197.503C234.227 193.789 229.875 191.809 224.756 191.614Z" fill="white"/>
<path id="Fill 11" fill-rule="evenodd" clip-rule="evenodd" d="M253.828 193.436V176.431H247.605V193.436H241.432V199.686H247.605V230.135H253.828V199.686H260V193.436H253.828Z" fill="white"/>
<path id="Fill 12" fill-rule="evenodd" clip-rule="evenodd" d="M5.13501 243.722H8.49816C11.3678 243.722 11.3509 239.512 8.49816 239.512H5.13501V243.722ZM8.49816 245.777H5.13501V249.276H2.89191V237.39C4.76126 237.39 6.6288 237.373 8.49816 237.373C14.3072 237.373 14.3241 245.777 8.49816 245.777Z" fill="white"/>
<path id="Fill 13" fill-rule="evenodd" clip-rule="evenodd" d="M42.7838 239.885L40.5751 244.945H44.9932L42.7838 239.885ZM45.8924 247.034H39.6759L38.6569 249.276H36.2279L41.5609 237.39H44.008L49.3416 249.276H46.8945L45.8924 247.034Z" fill="white"/>
<path id="Fill 14" fill-rule="evenodd" clip-rule="evenodd" d="M75.6775 239.478V243.282H79.0918C80.52 243.282 81.1314 242.33 81.1314 241.38C81.1314 240.427 80.5031 239.478 79.0918 239.478H75.6775ZM83.968 249.276H81.3006L77.8357 245.302H75.6775V249.276H73.4368V237.373C75.3206 237.373 77.2074 237.39 79.0918 237.39C81.8958 237.407 83.3727 239.273 83.3727 241.33C83.3727 242.959 82.6258 244.606 80.3659 245.064L83.968 249.122V249.276Z" fill="white"/>
<path id="Fill 15" fill-rule="evenodd" clip-rule="evenodd" d="M111.562 239.427H107.79V237.39C111.221 237.39 114.126 237.39 117.574 237.39V239.427H113.804V249.276H111.562V239.427Z" fill="white"/>
<path id="Fill 16" fill-rule="evenodd" clip-rule="evenodd" d="M149.824 237.373H152.066V249.276H150.674V249.293L144.422 241.261V249.276H142.179V237.39H143.998L149.824 244.76V237.373Z" fill="white"/>
<path id="Fill 17" fill-rule="evenodd" clip-rule="evenodd" d="M186.063 249.276H177.163C177.163 245.319 177.163 241.347 177.163 237.39H186.063V239.563H179.388V242.296H185.827V244.385H179.388V247.068H186.063V249.276Z" fill="white"/>
<path id="Fill 18" fill-rule="evenodd" clip-rule="evenodd" d="M213.133 239.478V243.282H216.547C217.973 243.282 218.585 242.33 218.585 241.38C218.585 240.427 217.956 239.478 216.547 239.478H213.133ZM221.421 249.276H218.755L215.29 245.302H213.133V249.276H210.89V237.373C212.775 237.373 214.661 237.39 216.547 237.39C219.349 237.407 220.826 239.273 220.826 241.33C220.826 242.959 220.079 244.606 217.819 245.064L221.421 249.122V249.276Z" fill="white"/>
<path id="Fill 20" fill-rule="evenodd" clip-rule="evenodd" d="M253.279 240.258C252.871 239.579 251.75 238.934 250.459 238.934C248.795 238.934 247.997 239.63 247.997 240.514C247.997 241.549 249.219 241.838 250.647 242.007C253.126 242.313 255.437 242.959 255.437 245.793C255.437 248.443 253.093 249.581 250.443 249.581C248.014 249.581 246.145 248.835 245.262 246.66L247.129 245.692C247.657 247 249.032 247.578 250.476 247.578C251.886 247.578 253.211 247.085 253.211 245.793C253.211 244.673 252.039 244.215 250.459 244.046C248.03 243.756 245.788 243.112 245.788 240.445C245.788 238.002 248.2 236.998 250.391 236.981C252.242 236.981 254.163 237.508 255.064 239.343L253.279 240.258Z" fill="white"/>
</g>
</svg>
