<?xml version="1.0" encoding="utf-8"?>
<!-- Generator: Adobe Illustrator 23.1.1, SVG Export Plug-In . SVG Version: 6.00 Build 0)  -->
<svg version="1.2" baseProfile="tiny" id="Layer_1" xmlns="http://www.w3.org/2000/svg" xmlns:xlink="http://www.w3.org/1999/xlink"
	 x="0px" y="0px" viewBox="0 0 514 200" xml:space="preserve">
<g>
	<path fill="#FFFFFF" d="M141.1,147.5v24.3h-4.5v-17.5l-1,1.9l-10.2,15.6h-4.7v-24.3h4.5v17.4l1-1.9l10.2-15.5H141.1z"/>
	<path fill="#FFFFFF" d="M143.7,151.7v-4.2h19.5v4.2h-7.4v20.1h-4.6v-20.1H143.7z"/>
</g>
<g>
	<path fill="#FF4F12" d="M37.6,128L6.8,158.9c-1.5,1.5-2.5,3.7-2.5,6.1c0,4,3,8.6,8.1,8.6h70.7L37.6,128z"/>
	<path fill="#7800FF" d="M12.4,173.5C7,173.5,0,169.2,0,160.7V65.6c0-12.9-0.3-21.9,8.9-31.1L43.3,0.1l61.1,61.2L6.8,158.9
		c-1.5,1.5-2.5,3.7-2.5,6.1C4.3,168.9,7.3,173.5,12.4,173.5"/>
</g>
<g>
	<path fill="#FFFFFF" d="M121.8,80.9h21.6c10.8,0,17.8,5.8,17.8,15.7c0,9.9-7,15.7-17.8,15.7h-13.9v17.9h-7.6V80.9z M129.4,105.6
		h13.7c6.8,0,10.4-3.5,10.4-8.9c0-5.5-3.6-8.9-10.4-8.9h-13.7V105.6z"/>
	<path fill="#FFFFFF" d="M179.8,131.2c-9.2,0-18.7-6.3-18.7-18.5s9.5-18.5,18.7-18.5c9.2,0,18.7,6.3,18.7,18.5
		S189,131.2,179.8,131.2z M191.2,112.8c0-7.1-5.2-11.8-11.3-11.8c-6.1,0-11.3,4.7-11.3,11.8c0,7.1,5.2,11.8,11.3,11.8
		C186,124.6,191.2,119.9,191.2,112.8z"/>
	<path fill="#FFFFFF" d="M238.1,121.2c-3.3,6.6-8.8,10.1-16.1,10.1c-10.1,0-18.1-7.5-18.1-18.5s8.3-18.5,18.1-18.5
		c7.7,0,13.3,3.6,15.8,9.5l-5.7,3.8c-2.5-5.1-6.1-6.7-10-6.7c-5.9,0-10.8,4.4-10.8,11.8c0,7.4,4.6,11.8,10.8,11.8
		c5.3,0,8.1-2.7,10.4-7L238.1,121.2z"/>
	<path fill="#FFFFFF" d="M241.2,95.3h27.5v6.2h-10.1v28.7h-7.2v-28.7h-10.1V95.3z"/>
	<path fill="#FFFFFF" d="M279.4,114.3c0.3,6.2,4.4,10.6,10.6,10.6c5.7,0,8.4-3.1,10.4-7.3l5.6,3.3c-3.2,6.7-8.3,10.2-16.2,10.2
		c-9.6,0-17.6-7.5-17.6-18.5s8-18.5,18-18.5c10.1,0,16.9,7.3,16.9,17.5v2.5H279.4z M279.4,108.8h20.9c-0.6-5.7-5.4-8.7-10.2-8.7
		C284.8,100.1,280.7,103.8,279.4,108.8z"/>
	<path fill="#FFFFFF" d="M343.9,130.2h-7.2v-28.6h-12.3l-2,20.6c-0.6,5.9-3.4,8.5-7.7,8.5c-1.5,0-2.9-0.1-4.3-0.5l1.1-6.3
		c0.6,0.2,1.2,0.4,1.8,0.4c1.5,0,2-1.1,2.2-2.7l2.6-26.2h25.9V130.2z"/>
	<path fill="#FFFFFF" d="M355.8,114.3c0.3,6.2,4.4,10.6,10.6,10.6c5.7,0,8.4-3.1,10.4-7.3l5.6,3.3c-3.2,6.7-8.3,10.2-16.2,10.2
		c-9.6,0-17.6-7.5-17.6-18.5s8-18.5,18-18.5c10.1,0,16.9,7.3,16.9,17.5v2.5H355.8z M355.8,108.8h20.9c-0.6-5.7-5.4-8.7-10.2-8.7
		C361.3,100.1,357.2,103.8,355.8,108.8z"/>
	<path fill="#FFFFFF" d="M398.4,108.4l12-13.1h8.7l-12.6,13.6l14.7,21.3h-8.4l-11.3-16.1l-3.2,3.4v12.7h-7.2V95.3h7.2V108.4z"/>
	<path fill="#FFFFFF" d="M440.2,131.2c-9.2,0-18.7-6.3-18.7-18.5s9.5-18.5,18.7-18.5c9.2,0,18.7,6.3,18.7,18.5
		S449.3,131.2,440.2,131.2z M451.5,112.8c0-7.1-5.2-11.8-11.3-11.8c-6.1,0-11.3,4.7-11.3,11.8c0,7.1,5.2,11.8,11.3,11.8
		C446.3,124.6,451.5,119.9,451.5,112.8z"/>
	<path fill="#FFFFFF" d="M479.8,130.2l-8.1-22.1v22.1H465V95.3h7.7l10.4,27.8l10.5-27.8h7.7v34.9h-6.8v-22.1l-8.1,22.1H479.8z"/>
</g>
</svg>
