<?xml version="1.0" encoding="UTF-8"?>
<svg width="498px" height="180px" viewBox="0 0 498 180" version="1.1" xmlns="http://www.w3.org/2000/svg" xmlns:xlink="http://www.w3.org/1999/xlink">
    <!-- Generator: Sketch 55.1 (78136) - https://sketchapp.com -->
    <title>Group 89</title>
    <desc>Created with Sketch.</desc>
    <g id="Page-2" stroke="none" stroke-width="1" fill="none" fill-rule="evenodd">
        <g id="logotype_rt_it" transform="translate(-172.000000, -176.000000)">
            <g id="Group-89" transform="translate(172.000000, 176.276000)">
                <path d="M82.8789,173.1102 L12.4519,173.1102 C7.3629,173.1102 4.3729,168.5632 4.3729,164.5922 C4.3729,162.2412 5.3239,160.1092 6.8649,158.5682 L37.6009,127.8312 L82.8789,173.1102 Z" id="Fill-47" fill="#D35D37"></path>
                <path d="M12.4511,173.1102 C7.1321,173.1102 0.4831,168.8582 0.4831,160.4022 L0.4831,65.7222 C0.4831,52.9292 -0.1649,43.9302 8.9721,34.7932 L43.2521,0.5072 L104.0471,61.3962 L6.8651,158.5682 C5.3261,160.1092 4.3701,162.2412 4.3701,164.5922 C4.3701,168.5632 7.3621,173.1102 12.4511,173.1102" id="Fill-49" fill="#6600FA"></path>

                <path d="M119.8427,148.0073 L124.3267,148.0073 L124.3267,166.0113 C124.5377,165.4863 125.3777,164.0843 125.3777,164.0843 L135.2907,148.0073 L139.9847,148.0073 L139.9847,172.5263 L135.5007,172.5263 L135.5007,154.4173 C135.2907,154.9423 134.4497,156.3443 134.4497,156.3443 L124.5377,172.5263 L119.8427,172.5263 L119.8427,148.0073 Z" id="Fill-51" fill="#d5d5d5"></path>
                <polygon id="Fill-53" fill="#d5d5d5" points="149.373 152.28 141.878 152.28 141.878 148.007 161.493 148.007 161.493 152.28 153.997 152.28 153.997 172.527 149.373 172.527"></polygon>
                <path d="M191.6172,172.5266 L185.8732,172.5266 L178.3762,163.6296 C177.7812,162.9636 177.1852,162.1926 176.5542,161.4926 L176.5542,172.5266 L171.9302,172.5266 L171.9302,148.0076 L176.5542,148.0076 L176.5542,157.9896 C177.1502,157.1846 177.8512,156.3436 178.4812,155.6436 L185.1722,148.0076 L191.1262,148.0076 L180.6182,159.5316 L191.6172,172.5266 Z" id="Fill-55" fill="#d5d5d5"></path>
                <path d="M192.6338,172.5266 L192.6338,168.6386 C192.6338,168.6386 193.0888,168.8486 193.8598,168.8486 C194.9448,168.8486 195.4708,168.1136 195.6458,164.9956 L196.2048,155.1526 L209.8668,155.1526 L209.8668,172.5266 L205.4538,172.5266 L205.4538,159.1456 L200.0588,159.1456 L199.7428,165.1706 C199.4978,170.1796 198.0968,172.7716 194.1748,172.7716 C193.3678,172.7716 192.6338,172.5266 192.6338,172.5266" id="Fill-57" fill="#d5d5d5"></path>
                <path d="M223.459,164.6105 L223.459,164.2955 L219.256,164.8905 C217.363,165.1705 216.349,165.8715 216.349,167.3425 C216.349,168.7435 217.469,169.4445 218.834,169.4445 C221.393,169.4445 223.459,167.9725 223.459,164.6105 M223.703,169.7595 C222.478,171.9315 220.376,173.0165 217.889,173.0165 C214.457,173.0165 212.04,170.8805 212.04,167.5875 C212.04,164.0495 214.702,162.4385 218.24,161.9485 L223.459,161.2475 L223.459,160.3715 C223.459,158.6905 222.408,157.7445 220.202,157.7445 C218.274,157.7445 217.153,158.6205 217.153,159.7065 C217.153,159.8465 217.153,160.0565 217.188,160.1965 L213.02,160.6515 C212.95,160.3365 212.95,159.9865 212.95,159.7415 C212.95,157.0435 215.647,154.6625 220.202,154.6625 C225.07,154.6625 227.872,156.7285 227.872,160.9675 L227.872,168.2175 C227.872,170.1105 228.048,171.3355 228.432,172.5265 L224.055,172.5265 C223.879,171.8255 223.703,170.8805 223.703,169.7595" id="Fill-59" fill="#d5d5d5"></path>
                <path d="M238.8359,173.0165 C233.6869,173.0165 229.6929,169.3745 229.6929,163.8395 C229.6929,158.3045 233.8979,154.6625 238.8359,154.6625 C242.6189,154.6625 245.3509,156.3085 246.6109,159.0055 L242.8289,161.1775 C241.7429,159.5315 240.3769,158.7955 238.8009,158.7955 C236.2089,158.7955 234.1769,160.7575 234.1769,163.8395 C234.1769,166.9565 236.1389,168.8835 238.8009,168.8835 C240.9739,168.8835 242.0939,167.8335 243.1439,166.3615 L246.7869,168.3585 C245.0349,171.3355 242.5499,173.0165 238.8359,173.0165" id="Fill-61" fill="#d5d5d5"></path>
                <polygon id="Fill-63" fill="#d5d5d5" points="252.1474 159.146 246.9624 159.146 246.9624 155.152 261.7454 155.152 261.7454 159.146 256.5604 159.146 256.5604 172.527 252.1474 172.527"></polygon>
                <path d="M266.2285,161.5273 L275.4405,161.5273 C275.0205,159.3553 273.3745,158.0243 270.9215,158.0243 C268.6105,158.0243 266.8595,159.5653 266.2285,161.5273 M270.9215,169.2333 C273.2685,169.2333 274.2495,168.2173 275.3345,166.8523 L278.8375,168.6033 C277.0865,171.5813 274.6695,173.0163 270.8515,173.0163 C266.0175,173.0163 261.9195,169.3393 261.9195,163.8393 C261.9195,158.3393 266.0175,154.6623 271.0615,154.6623 C276.0365,154.6623 279.5395,158.2703 279.5395,163.3493 L279.5395,164.8903 L266.1585,164.8903 C266.4385,167.5533 268.3305,169.2333 270.9215,169.2333" id="Fill-65" fill="#d5d5d5"></path>
                <path d="M285.914,163.8395 C285.914,166.6765 287.98,168.8835 290.818,168.8835 C293.655,168.8835 295.723,166.6765 295.723,163.8395 C295.723,161.0025 293.655,158.7955 290.818,158.7955 C287.98,158.7955 285.914,161.0025 285.914,163.8395 L285.914,163.8395 Z M286.195,155.1525 L286.195,157.6395 C287.35,155.9585 289.593,154.6625 292.219,154.6625 C296.562,154.6625 300.206,158.0595 300.206,163.8395 C300.206,169.4095 296.457,173.0165 291.833,173.0165 C289.382,173.0165 287.456,171.9665 286.195,170.3905 L286.195,179.6725 L281.78,179.6725 L281.78,155.1525 L286.195,155.1525 Z" id="Fill-67" fill="#d5d5d5"></path>
                <polygon id="Fill-69" fill="#d5d5d5" points="415.7382 96.6127 405.5562 96.6127 393.3952 108.9127 393.3952 96.6127 384.7842 96.6127 384.7842 130.5047 393.3952 130.5047 393.3952 116.4977 405.7612 130.5047 416.1482 130.5047 400.1592 112.3277"></polygon>
                <path d="M142.5254,105.7695 L130.0884,105.7695 L130.0884,90.7365 L142.5254,90.7365 C148.8124,90.7365 151.6804,93.7425 151.6804,98.2525 C151.6804,102.7625 148.8124,105.7695 142.5254,105.7695 M142.7984,82.6735 L121.0694,82.6735 L121.0694,130.5045 L130.0884,130.5045 L130.0884,113.8305 L142.7984,113.8305 C153.5954,113.8305 160.7024,108.2975 160.7024,98.2525 C160.7024,88.2075 153.5954,82.6735 142.7984,82.6735" id="Fill-71" fill="#d5d5d5"></path>
                <path d="M181.0605,123.3984 C176.0035,123.3984 171.2895,119.7754 171.2895,113.5564 C171.2895,107.3404 176.0035,103.7194 181.0605,103.7194 C186.1175,103.7194 190.8315,107.3404 190.8315,113.5564 C190.8315,119.7754 186.1175,123.3984 181.0605,123.3984 M181.0605,95.6564 C171.7675,95.6564 162.5425,101.6694 162.5425,113.5564 C162.5425,125.4474 171.7675,131.4604 181.0605,131.4604 C190.3535,131.4604 199.5785,125.4474 199.5785,113.5564 C199.5785,101.6694 190.3535,95.6564 181.0605,95.6564" id="Fill-73" fill="#d5d5d5"></path>
                <path d="M221.5586,123.3984 C216.3666,123.3984 212.5386,119.6394 212.5386,113.5564 C212.5386,107.5444 216.5016,103.7194 221.5586,103.7194 C224.6346,103.7194 227.2996,105.1544 229.4166,108.3654 L236.7956,104.1284 C234.3376,98.8664 229.0076,95.6564 221.6266,95.6564 C211.9936,95.6564 203.7926,102.7624 203.7926,113.5564 C203.7926,124.3534 211.5836,131.4604 221.6266,131.4604 C228.8706,131.4604 233.7216,128.1824 237.1386,122.3734 L230.0326,118.4794 C227.9836,121.3474 225.7956,123.3984 221.5586,123.3984" id="Fill-75" fill="#d5d5d5"></path>
                <path d="M313.2304,115.814 C312.8214,121.007 311.7934,122.169 310.0174,122.169 C308.8034,122.169 308.2324,122.034 307.4024,121.816 L307.4454,130.588 C307.4454,130.588 308.5154,130.913 310.4974,130.913 C317.8084,130.913 320.5424,126.201 321.2254,116.155 L322.0454,104.335 L331.7484,104.335 L331.7484,130.437 L340.3584,130.437 L340.3584,96.613 L314.6654,96.613 L313.2304,115.814 Z" id="Fill-77" fill="#d5d5d5"></path>
                <path d="M279.3799,109.0494 C280.6099,105.2224 284.0259,102.2154 288.5349,102.2154 C293.3199,102.2154 296.5319,104.8124 297.3519,109.0494 L279.3799,109.0494 Z M288.8109,95.6554 C278.9699,95.6554 270.9769,102.8304 270.9769,113.5584 C270.9769,124.2864 278.9699,131.4614 288.3999,131.4614 C295.8489,131.4614 300.5629,128.6594 303.9799,122.8514 L297.1469,119.4364 C295.0269,122.0994 293.1139,124.0794 288.5349,124.0794 C283.4809,124.0794 279.7909,120.8014 279.2429,115.6074 L305.3469,115.6074 L305.3469,112.6014 C305.3469,102.6944 298.5139,95.6554 288.8109,95.6554 L288.8109,95.6554 Z" id="Fill-79" fill="#d5d5d5"></path>
                <path d="M353.582,109.0494 C354.811,105.2224 358.228,102.2154 362.737,102.2154 C367.521,102.2154 370.732,104.8124 371.553,109.0494 L353.582,109.0494 Z M363.012,95.6554 C353.172,95.6554 345.178,102.8304 345.178,113.5584 C345.178,124.2864 353.172,131.4614 362.602,131.4614 C370.05,131.4614 374.765,128.6594 378.181,122.8514 L371.348,119.4364 C369.229,122.0994 367.315,124.0794 362.737,124.0794 C357.682,124.0794 353.992,120.8014 353.446,115.6074 L379.548,115.6074 L379.548,112.6014 C379.548,102.6944 372.714,95.6554 363.012,95.6554 L363.012,95.6554 Z" id="Fill-81" fill="#d5d5d5"></path>
                <polygon id="Fill-83" fill="#d5d5d5" points="239.8164 104.1281 249.9304 104.1281 249.9304 130.5051 258.5394 130.5051 258.5394 104.1281 268.6534 104.1281 268.6534 96.6131 239.8164 96.6131"></polygon>
                <path d="M433.2411,123.3984 C428.1841,123.3984 423.4701,119.7764 423.4701,113.5584 C423.4701,107.3404 428.1841,103.7194 433.2411,103.7194 C438.2991,103.7194 443.0121,107.3404 443.0121,113.5584 C443.0121,119.7764 438.2991,123.3984 433.2411,123.3984 M433.2411,95.6564 C423.9491,95.6564 414.7241,101.6694 414.7241,113.5584 C414.7241,125.4474 423.9491,131.4614 433.2411,131.4614 C442.5341,131.4614 451.7591,125.4474 451.7591,113.5584 C451.7591,101.6694 442.5341,95.6564 433.2411,95.6564" id="Fill-85" fill="#d5d5d5"></path>
                <polygon id="Fill-87" fill="#d5d5d5" points="486.0175 96.6056 476.6735 120.3416 467.3285 96.6056 456.0755 96.6056 456.0755 130.4366 464.2595 130.4366 464.2595 109.0196 473.3305 130.4366 480.0155 130.4366 489.0865 109.0196 489.0865 130.4366 497.2715 130.4366 497.2715 96.6056"></polygon>
            </g>
        </g>
    </g>
</svg>
