<svg width="501" height="512" viewBox="0 0 501 512" fill="none" xmlns="http://www.w3.org/2000/svg">
<circle cx="347.022" cy="108.089" r="51.2" fill="#1876D3"/>
<path d="M215.601 20.4954C237.014 7.85161 263.608 7.85162 285.021 20.4954L433.53 108.186C454.327 120.465 467.087 142.819 467.087 166.97V345.03C467.087 369.181 454.327 391.535 433.53 403.814L285.021 491.505C263.608 504.148 237.014 504.148 215.601 491.505L67.0918 403.814C46.2957 391.535 33.5353 369.181 33.5353 345.03V166.97C33.5353 142.819 46.2957 120.465 67.0918 108.186L215.601 20.4954Z" fill="#1876D3"/>
<g filter="url(#filter0_d)">
<path fill-rule="evenodd" clip-rule="evenodd" d="M143.054 202.611H141.088V204.585V225.98V227.954H143.054H173.083V310.059V312.032H175.05H198.148H200.115V310.059V227.954H230.144H232.11V225.98V204.585V202.611H230.144H143.054Z" fill="white"/>
<path fill-rule="evenodd" clip-rule="evenodd" d="M259.41 202.611H302.09C335.372 202.611 359.535 225.604 359.535 257.306C359.535 289.008 335.372 312.032 302.09 312.032H259.41V202.611ZM286.277 287.191H302.096V287.128C319.745 287.128 331.594 275.287 331.594 257.463C331.594 239.639 319.745 227.672 302.096 227.672H286.277V287.191Z" fill="white"/>
<path fill-rule="evenodd" clip-rule="evenodd" d="M345.888 133.264C358.456 133.264 368.644 123.058 368.644 110.468C368.644 97.8785 358.456 87.6724 345.888 87.6724C333.321 87.6724 323.133 97.8785 323.133 110.468C323.133 123.058 333.321 133.264 345.888 133.264Z" fill="white"/>
<path fill-rule="evenodd" clip-rule="evenodd" d="M411.155 138.161L393.444 127.864C391.598 132.624 389.065 137.084 385.926 141.099L403.577 151.366C411.987 156.278 417.174 165.319 417.199 175.111V337.627C417.18 347.42 411.992 356.464 403.577 361.372L263.842 442.63C255.409 447.519 245.031 447.519 236.598 442.63L96.8623 361.372C88.4016 356.495 83.1641 347.445 83.1203 337.627V175.111C83.1454 165.319 88.3322 156.278 96.742 151.366L236.478 70.1082C244.91 65.219 255.289 65.219 263.721 70.1082L296.438 89.0371C298.331 84.3055 300.915 79.8854 304.105 75.9231L271.419 56.9033C258.305 49.2992 242.164 49.2992 229.051 56.9033L89.3147 138.161C76.2735 145.831 68.2586 159.901 68.2656 175.111V337.627C68.2898 352.868 76.366 366.945 89.4651 374.576L229.201 455.835C242.318 463.426 258.452 463.426 271.57 455.835L411.305 374.576C424.342 366.902 432.355 352.836 432.355 337.627V175.111C432.324 159.871 424.25 145.798 411.155 138.161Z" fill="white"/>
</g>
<defs>
<filter id="filter0_d" x="45.5101" y="51.2002" width="409.6" height="461.528" filterUnits="userSpaceOnUse" color-interpolation-filters="sRGB">
<feFlood flood-opacity="0" result="BackgroundImageFix"/>
<feColorMatrix in="SourceAlpha" type="matrix" values="0 0 0 0 0 0 0 0 0 0 0 0 0 0 0 0 0 0 127 0"/>
<feOffset dy="28.4444"/>
<feGaussianBlur stdDeviation="11.3778"/>
<feColorMatrix type="matrix" values="0 0 0 0 0 0 0 0 0 0.376154 0 0 0 0 0.748307 0 0 0 1 0"/>
<feBlend mode="normal" in2="BackgroundImageFix" result="effect1_dropShadow"/>
<feBlend mode="normal" in="SourceGraphic" in2="effect1_dropShadow" result="shape"/>
</filter>
</defs>
</svg>
