<svg width="512" height="512" viewBox="0 0 512 512" fill="none" xmlns="http://www.w3.org/2000/svg">
<path fill-rule="evenodd" clip-rule="evenodd" d="M137.853 197.549H135.727V199.681V222.791V224.923H137.853H170.316V313.609V315.741H172.442H197.414H199.54V313.609V224.923H232.003H234.129V222.791V199.681V197.549H232.003H137.853Z" fill="#396387"/>
<path fill-rule="evenodd" clip-rule="evenodd" d="M268.379 197.549H314.813C351.022 197.549 377.31 222.385 377.31 256.628C377.31 290.871 351.022 315.741 314.813 315.741H268.379V197.549ZM297.603 288.908H314.813V288.84C334.014 288.84 346.905 276.05 346.905 256.797C346.905 237.544 334.014 224.618 314.813 224.618H297.603V288.908Z" fill="#396387"/>
<path fill-rule="evenodd" clip-rule="evenodd" d="M362.26 116.611C376.033 116.611 387.198 105.415 387.198 91.6051C387.198 77.7949 376.033 66.5996 362.26 66.5996C348.487 66.5996 337.322 77.7949 337.322 91.6051C337.322 105.415 348.487 116.611 362.26 116.611Z" fill="#396387"/>
<path fill-rule="evenodd" clip-rule="evenodd" d="M436.967 124.562L417.091 113.058C415.019 118.376 412.177 123.358 408.655 127.845L428.464 139.315C437.901 144.803 443.722 154.904 443.75 165.844V347.412C443.729 358.354 437.906 368.458 428.464 373.941L271.648 464.725C262.184 470.187 250.537 470.187 241.074 464.725L84.2581 373.941C74.7633 368.492 68.8855 358.382 68.8364 347.412V165.844C68.8646 154.904 74.6853 144.803 84.1231 139.315L240.939 48.5309C250.402 43.0686 262.049 43.0686 271.513 48.5309L308.228 69.679C310.353 64.3927 313.253 59.4544 316.833 55.0276L280.152 33.778C265.435 25.2823 247.321 25.2823 232.604 33.778L75.788 124.562C61.1527 133.131 52.1581 148.85 52.166 165.844V347.412C52.1931 364.441 61.2566 380.167 75.9567 388.694L232.773 479.478C247.493 487.96 265.6 487.96 280.32 479.478L437.136 388.694C451.766 380.12 460.759 364.404 460.758 347.412V165.844C460.724 148.817 451.663 133.094 436.967 124.562Z" fill="#4A7FC3"/>
</svg>
